<svg width="84" height="78" viewBox="0 0 84 78" fill="none" xmlns="http://www.w3.org/2000/svg">
<g filter="url(#filter0_d_2_727)">
<path d="M43.48 34.5634C42.5642 35.0921 41.4358 35.0921 40.52 34.5634C39.6042 34.0346 39.0401 33.0575 39.0401 32C39.0401 30.9425 39.6042 29.9654 40.52 29.4366C41.4358 28.9079 42.5642 28.9079 43.48 29.4366C44.3958 29.9654 44.9599 30.9425 44.9599 32C44.9599 33.0575 44.3958 34.0346 43.48 34.5634Z" stroke="url(#paint0_linear_2_727)" stroke-width="26.7045" stroke-linecap="round" stroke-linejoin="round"/>
<path d="M43.0168 33.7612C42.3876 34.1244 41.6124 34.1244 40.9832 33.7612C40.354 33.3979 39.9664 32.7265 39.9664 32C39.9664 31.2735 40.354 30.6021 40.9832 30.2388C41.6124 29.8756 42.3876 29.8756 43.0168 30.2388C43.646 30.6021 44.0336 31.2735 44.0336 32C44.0336 32.7265 43.646 33.3979 43.0168 33.7612Z" stroke="url(#paint1_linear_2_727)" stroke-width="22.2537" stroke-linecap="round" stroke-linejoin="round"/>
<g filter="url(#filter1_f_2_727)">
<path d="M38.4157 25.7917C40.6337 24.5112 43.3663 24.5112 45.5843 25.7917C47.8023 27.0723 49.1687 29.4389 49.1687 32C49.1687 34.5611 47.8023 36.9277 45.5843 38.2083C43.3663 39.4888 40.6337 39.4888 38.4157 38.2083C36.1977 36.9277 34.8313 34.5611 34.8313 32C34.8313 29.4389 36.1977 27.0723 38.4157 25.7917Z" stroke="#611AD9" stroke-opacity="0.5" stroke-width="2.22537" stroke-linecap="round" stroke-linejoin="round"/>
</g>
<path d="M38.4037 25.771C40.6291 24.4861 43.3709 24.4861 45.5963 25.771C47.8217 27.0558 49.1927 29.4303 49.1927 32C49.1927 34.5697 47.8217 36.9442 45.5963 38.229C43.3709 39.5139 40.6291 39.5139 38.4037 38.229C36.1783 36.9442 34.8073 34.5697 34.8073 32C34.8073 29.4303 36.1783 27.0558 38.4037 25.771Z" stroke="white" stroke-opacity="0.3" stroke-width="4.45075" stroke-linecap="round" stroke-linejoin="round"/>
<path d="M38.4037 25.771C40.6291 24.4861 43.3709 24.4861 45.5963 25.771C47.8217 27.0558 49.1927 29.4303 49.1927 32C49.1927 34.5697 47.8217 36.9442 45.5963 38.229C43.3709 39.5139 40.6291 39.5139 38.4037 38.229C36.1783 36.9442 34.8073 34.5697 34.8073 32C34.8073 29.4303 36.1783 27.0558 38.4037 25.771Z" stroke="url(#paint2_linear_2_727)" stroke-opacity="0.5" stroke-width="4.45075" stroke-linecap="round" stroke-linejoin="round"/>
<g filter="url(#filter2_ii_2_727)">
<path d="M37.9405 25.0059C40.4525 23.5555 43.5475 23.5555 46.0595 25.0059C48.5715 26.4562 50.119 29.1365 50.119 32.0371C50.119 34.9377 48.5715 37.618 46.0595 39.0684C43.5475 40.5187 40.4525 40.5187 37.9405 39.0684C35.4285 37.618 33.881 34.9377 33.881 32.0371C33.881 29.1365 35.4285 26.4562 37.9405 25.0059Z" fill="url(#paint3_linear_2_727)"/>
</g>
<path d="M40.1659 28.8603C41.3008 28.2051 42.6992 28.2051 43.8341 28.8603C44.9691 29.5156 45.6682 30.7266 45.6682 32.0371C45.6682 33.3476 44.9691 34.5586 43.8341 35.2139C42.6992 35.8692 41.3008 35.8692 40.1659 35.2139C39.0309 34.5586 38.3318 33.3476 38.3318 32.0371C38.3318 30.7266 39.0309 29.5156 40.1659 28.8603Z" stroke="url(#paint4_linear_2_727)" stroke-opacity="0.16" stroke-width="8.9015" stroke-linecap="round" stroke-linejoin="round"/>
<g style="mix-blend-mode:lighten" filter="url(#filter3_f_2_727)">
<rect x="36.5625" y="26.9746" width="6.75" height="0.75" rx="0.375" transform="rotate(-30 36.5625 26.9746)" fill="url(#paint5_linear_2_727)"/>
</g>
<g style="mix-blend-mode:lighten" opacity="0.5" filter="url(#filter4_f_2_727)">
<rect x="36.5625" y="26.9746" width="6.75" height="0.75" rx="0.375" transform="rotate(-30 36.5625 26.9746)" fill="url(#paint6_linear_2_727)"/>
</g>
<g style="mix-blend-mode:lighten" opacity="0.25" filter="url(#filter5_f_2_727)">
<rect x="41.0625" y="29" width="6.75058" height="6.47773" rx="3.23886" transform="rotate(-30 41.0625 29)" fill="url(#paint7_linear_2_727)"/>
</g>
<g filter="url(#filter6_f_2_727)">
<path d="M41.9103 41.8071L36.3342 38.4355C39.1223 40.1213 43.0774 36.3607 48.1348 38.0465L41.9103 41.8071Z" fill="#E924FA" fill-opacity="0.75"/>
</g>
<g filter="url(#filter7_d_2_727)">
<path d="M42.0003 36.8215L44.6842 31.3643H39.3164L42.0003 36.8215Z" fill="#C4C4C4"/>
<path d="M42.0003 36.8215L44.6842 31.3643H39.3164L42.0003 36.8215Z" fill="url(#paint8_linear_2_727)"/>
<path d="M48.1345 31.3641L45.9874 28.2456L45.834 29.0252L47.3676 31.3641H48.1345Z" fill="#C4C4C4"/>
<path d="M48.1345 31.3641L45.9874 28.2456L45.834 29.0252L47.3676 31.3641H48.1345Z" fill="url(#paint9_linear_2_727)"/>
<path d="M47.3675 31.3642L45.8338 29.0254L44.6836 31.3642H47.3675Z" fill="#C4C4C4"/>
<path d="M47.3675 31.3642L45.8338 29.0254L44.6836 31.3642H47.3675Z" fill="url(#paint10_linear_2_727)"/>
<path d="M44.6839 31.3642L45.8342 29.0254H42L44.6839 31.3642Z" fill="#C4C4C4"/>
<path d="M44.6839 31.3642L45.8342 29.0254H42L44.6839 31.3642Z" fill="url(#paint11_linear_2_727)"/>
<path d="M42.0003 29.0254L44.6842 31.3642H39.3164L42.0003 29.0254Z" fill="#C4C4C4"/>
<path d="M42.0003 29.0254L44.6842 31.3642H39.3164L42.0003 29.0254Z" fill="url(#paint12_linear_2_727)"/>
<path d="M42.0002 29.0254H38.166L39.3163 31.3642L42.0002 29.0254Z" fill="#C4C4C4"/>
<path d="M42.0002 29.0254H38.166L39.3163 31.3642L42.0002 29.0254Z" fill="url(#paint13_linear_2_727)"/>
<path d="M45.9868 28.2456H38.0117L38.1651 29.0252H41.9992H45.8334L45.9868 28.2456Z" fill="#C4C4C4"/>
<path d="M45.9868 28.2456H38.0117L38.1651 29.0252H41.9992H45.8334L45.9868 28.2456Z" fill="url(#paint14_linear_2_727)"/>
<path d="M38.1665 29.0254L36.6328 31.3642H39.3167L38.1665 29.0254Z" fill="#C4C4C4"/>
<path d="M38.1665 29.0254L36.6328 31.3642H39.3167L38.1665 29.0254Z" fill="url(#paint15_linear_2_727)"/>
<path d="M35.8652 31.3636L38.0124 28.2451L38.1657 29.0247L36.6321 31.3636H35.8652Z" fill="#C4C4C4"/>
<path d="M35.8652 31.3636L38.0124 28.2451L38.1657 29.0247L36.6321 31.3636H35.8652Z" fill="url(#paint16_linear_2_727)"/>
<path d="M41.9999 37.6012L35.8652 31.3643H36.6321L41.9999 36.8215V37.6012Z" fill="#C4C4C4"/>
<path d="M41.9999 37.6012L35.8652 31.3643H36.6321L41.9999 36.8215V37.6012Z" fill="url(#paint17_linear_2_727)"/>
<path d="M48.1347 31.3643L42 37.6012V36.8215L47.3678 31.3643H48.1347Z" fill="#C4C4C4"/>
<path d="M48.1347 31.3643L42 37.6012V36.8215L47.3678 31.3643H48.1347Z" fill="url(#paint18_linear_2_727)"/>
<path d="M42.0006 36.8215L36.6328 31.3643H39.3167L42.0006 36.8215Z" fill="#C4C4C4"/>
<path d="M42.0006 36.8215L36.6328 31.3643H39.3167L42.0006 36.8215Z" fill="url(#paint19_linear_2_727)"/>
<path d="M47.3678 31.3643L42 36.8215L44.6839 31.3643H47.3678Z" fill="#C4C4C4"/>
<path d="M47.3678 31.3643L42 36.8215L44.6839 31.3643H47.3678Z" fill="url(#paint20_linear_2_727)"/>
</g>
</g>
<defs>
<filter id="filter0_d_2_727" x="12.197" y="4.42238" width="59.606" height="59.606" filterUnits="userSpaceOnUse" color-interpolation-filters="sRGB">
<feFlood flood-opacity="0" result="BackgroundImageFix"/>
<feColorMatrix in="SourceAlpha" type="matrix" values="0 0 0 0 0 0 0 0 0 0 0 0 0 0 0 0 0 0 127 0" result="hardAlpha"/>
<feOffset dy="2.22537"/>
<feGaussianBlur stdDeviation="8.9015"/>
<feColorMatrix type="matrix" values="0 0 0 0 0.13725 0 0 0 0 0.0028125 0 0 0 0 0.675 0 0 0 0.5 0"/>
<feBlend mode="normal" in2="BackgroundImageFix" result="effect1_dropShadow_2_727"/>
<feBlend mode="normal" in="SourceGraphic" in2="effect1_dropShadow_2_727" result="shape"/>
</filter>
<filter id="filter1_f_2_727" x="31.4934" y="21.4934" width="21.0132" height="21.0132" filterUnits="userSpaceOnUse" color-interpolation-filters="sRGB">
<feFlood flood-opacity="0" result="BackgroundImageFix"/>
<feBlend mode="normal" in="SourceGraphic" in2="BackgroundImageFix" result="shape"/>
<feGaussianBlur stdDeviation="1.11269" result="effect1_foregroundBlur_2_727"/>
</filter>
<filter id="filter2_ii_2_727" x="31.6555" y="19.4672" width="27.3652" height="29.5905" filterUnits="userSpaceOnUse" color-interpolation-filters="sRGB">
<feFlood flood-opacity="0" result="BackgroundImageFix"/>
<feBlend mode="normal" in="SourceGraphic" in2="BackgroundImageFix" result="shape"/>
<feColorMatrix in="SourceAlpha" type="matrix" values="0 0 0 0 0 0 0 0 0 0 0 0 0 0 0 0 0 0 127 0" result="hardAlpha"/>
<feOffset dx="8.9015" dy="8.9015"/>
<feGaussianBlur stdDeviation="40.0567"/>
<feComposite in2="hardAlpha" operator="arithmetic" k2="-1" k3="1"/>
<feColorMatrix type="matrix" values="0 0 0 0 1 0 0 0 0 1 0 0 0 0 1 0 0 0 0.25 0"/>
<feBlend mode="normal" in2="shape" result="effect1_innerShadow_2_727"/>
<feColorMatrix in="SourceAlpha" type="matrix" values="0 0 0 0 0 0 0 0 0 0 0 0 0 0 0 0 0 0 127 0" result="hardAlpha"/>
<feOffset dx="-2.22537" dy="-4.45075"/>
<feGaussianBlur stdDeviation="8.9015"/>
<feComposite in2="hardAlpha" operator="arithmetic" k2="-1" k3="1"/>
<feColorMatrix type="matrix" values="0 0 0 0 0.380392 0 0 0 0 0.101961 0 0 0 0 0.85098 0 0 0 0.25 0"/>
<feBlend mode="normal" in2="effect1_innerShadow_2_727" result="effect2_innerShadow_2_727"/>
</filter>
<filter id="filter3_f_2_727" x="18.8962" y="5.93382" width="41.5533" height="39.356" filterUnits="userSpaceOnUse" color-interpolation-filters="sRGB">
<feFlood flood-opacity="0" result="BackgroundImageFix"/>
<feBlend mode="normal" in="SourceGraphic" in2="BackgroundImageFix" result="shape"/>
<feGaussianBlur stdDeviation="8.9015" result="effect1_foregroundBlur_2_727"/>
</filter>
<filter id="filter4_f_2_727" x="18.8962" y="5.93382" width="41.5533" height="39.356" filterUnits="userSpaceOnUse" color-interpolation-filters="sRGB">
<feFlood flood-opacity="0" result="BackgroundImageFix"/>
<feBlend mode="normal" in="SourceGraphic" in2="BackgroundImageFix" result="shape"/>
<feGaussianBlur stdDeviation="8.9015" result="effect1_foregroundBlur_2_727"/>
</filter>
<filter id="filter5_f_2_727" x="15.5436" y="0.105076" width="60.1238" height="60.0242" filterUnits="userSpaceOnUse" color-interpolation-filters="sRGB">
<feFlood flood-opacity="0" result="BackgroundImageFix"/>
<feBlend mode="normal" in="SourceGraphic" in2="BackgroundImageFix" result="shape"/>
<feGaussianBlur stdDeviation="13.3522" result="effect1_foregroundBlur_2_727"/>
</filter>
<filter id="filter6_f_2_727" x="0.727993" y="1.99459" width="83.0128" height="75.4185" filterUnits="userSpaceOnUse" color-interpolation-filters="sRGB">
<feFlood flood-opacity="0" result="BackgroundImageFix"/>
<feBlend mode="normal" in="SourceGraphic" in2="BackgroundImageFix" result="shape"/>
<feGaussianBlur stdDeviation="17.803" result="effect1_foregroundBlur_2_727"/>
</filter>
<filter id="filter7_d_2_727" x="18.0622" y="12.6675" width="47.8755" height="44.9619" filterUnits="userSpaceOnUse" color-interpolation-filters="sRGB">
<feFlood flood-opacity="0" result="BackgroundImageFix"/>
<feColorMatrix in="SourceAlpha" type="matrix" values="0 0 0 0 0 0 0 0 0 0 0 0 0 0 0 0 0 0 127 0" result="hardAlpha"/>
<feOffset dy="2.22537"/>
<feGaussianBlur stdDeviation="8.9015"/>
<feColorMatrix type="matrix" values="0 0 0 0 0.13725 0 0 0 0 0.0028125 0 0 0 0 0.675 0 0 0 0.5 0"/>
<feBlend mode="normal" in2="BackgroundImageFix" result="effect1_dropShadow_2_727"/>
<feBlend mode="normal" in="SourceGraphic" in2="effect1_dropShadow_2_727" result="shape"/>
</filter>
<linearGradient id="paint0_linear_2_727" x1="30" y1="25.25" x2="54" y2="38.4688" gradientUnits="userSpaceOnUse">
<stop stop-color="#FAC5FF"/>
<stop offset="1" stop-color="#9B49FF"/>
</linearGradient>
<linearGradient id="paint1_linear_2_727" x1="37.4063" y1="24.125" x2="46.125" y2="40.0625" gradientUnits="userSpaceOnUse">
<stop stop-color="#9B56D1"/>
<stop offset="0.0001" stop-color="#A260D4"/>
<stop offset="1" stop-color="#D8CAFF"/>
</linearGradient>
<linearGradient id="paint2_linear_2_727" x1="37.6118" y1="23.6053" x2="48.8684" y2="38.4868" gradientUnits="userSpaceOnUse">
<stop stop-color="white"/>
<stop offset="0.401042" stop-color="white" stop-opacity="0"/>
</linearGradient>
<linearGradient id="paint3_linear_2_727" x1="32.625" y1="22.6621" x2="54.8863" y2="29.1307" gradientUnits="userSpaceOnUse">
<stop stop-color="#A88FFF"/>
<stop offset="1" stop-color="#611AD9"/>
</linearGradient>
<linearGradient id="paint4_linear_2_727" x1="32.625" y1="22.6621" x2="42" y2="41.4121" gradientUnits="userSpaceOnUse">
<stop stop-color="#874CE7"/>
<stop offset="1" stop-color="#665CDA"/>
</linearGradient>
<linearGradient id="paint5_linear_2_727" x1="36.0703" y1="27.2588" x2="42.1576" y2="27.601" gradientUnits="userSpaceOnUse">
<stop stop-color="white" stop-opacity="0.5"/>
<stop offset="1" stop-color="white"/>
</linearGradient>
<linearGradient id="paint6_linear_2_727" x1="36.0703" y1="27.2588" x2="42.1576" y2="27.601" gradientUnits="userSpaceOnUse">
<stop stop-color="#F95AD6" stop-opacity="0.5"/>
<stop offset="1" stop-color="white"/>
</linearGradient>
<linearGradient id="paint7_linear_2_727" x1="40.5703" y1="31.4543" x2="46.6771" y2="31.4941" gradientUnits="userSpaceOnUse">
<stop stop-color="white" stop-opacity="0.5"/>
<stop offset="1" stop-color="white"/>
</linearGradient>
<linearGradient id="paint8_linear_2_727" x1="42.0003" y1="31.3643" x2="42.0003" y2="36.8215" gradientUnits="userSpaceOnUse">
<stop stop-color="#7D5EE9"/>
<stop offset="1" stop-color="#E3A4FD"/>
</linearGradient>
<linearGradient id="paint9_linear_2_727" x1="45.834" y1="28.5857" x2="47.8006" y2="31.3641" gradientUnits="userSpaceOnUse">
<stop stop-color="#914FD8"/>
<stop offset="1" stop-color="#CD62E5"/>
</linearGradient>
<linearGradient id="paint10_linear_2_727" x1="46.342" y1="29.7005" x2="44.8891" y2="31.1968" gradientUnits="userSpaceOnUse">
<stop stop-color="#9363D7"/>
<stop offset="1" stop-color="#E8CEFF"/>
</linearGradient>
<linearGradient id="paint11_linear_2_727" x1="42" y1="29.0254" x2="45.1059" y2="30.5677" gradientUnits="userSpaceOnUse">
<stop stop-color="#CEB7F3"/>
<stop offset="1" stop-color="#AF8AF6"/>
</linearGradient>
<linearGradient id="paint12_linear_2_727" x1="42.0003" y1="29.0254" x2="42.0003" y2="31.3642" gradientUnits="userSpaceOnUse">
<stop stop-color="#EDD5FC"/>
<stop offset="1" stop-color="#FBF2FE"/>
</linearGradient>
<linearGradient id="paint13_linear_2_727" x1="42.0002" y1="29.0254" x2="38.7796" y2="30.1948" gradientUnits="userSpaceOnUse">
<stop stop-color="#E9DBFB"/>
<stop offset="1" stop-color="#EDE1FF"/>
</linearGradient>
<linearGradient id="paint14_linear_2_727" x1="38.0117" y1="28.6354" x2="45.9868" y2="28.6354" gradientUnits="userSpaceOnUse">
<stop stop-color="#EDD7FD"/>
<stop offset="0.895833" stop-color="#FDFCFF"/>
</linearGradient>
<linearGradient id="paint15_linear_2_727" x1="38.2925" y1="29.0254" x2="37.9748" y2="31.3642" gradientUnits="userSpaceOnUse">
<stop stop-color="#BDA0D7"/>
<stop offset="1" stop-color="#BEB4EF"/>
</linearGradient>
<linearGradient id="paint16_linear_2_727" x1="38.0688" y1="28.5475" x2="36.2701" y2="31.3636" gradientUnits="userSpaceOnUse">
<stop stop-color="#F7E0FD"/>
<stop offset="1" stop-color="#FEEDFF"/>
</linearGradient>
<linearGradient id="paint17_linear_2_727" x1="36.3392" y1="31.3643" x2="41.9999" y2="37.1808" gradientUnits="userSpaceOnUse">
<stop stop-color="#AF2EFD"/>
<stop offset="1" stop-color="#321392"/>
</linearGradient>
<linearGradient id="paint18_linear_2_727" x1="47.6389" y1="31.3643" x2="42" y2="37.3078" gradientUnits="userSpaceOnUse">
<stop stop-color="#271EC1"/>
<stop offset="1" stop-color="#EA25FE"/>
</linearGradient>
<linearGradient id="paint19_linear_2_727" x1="37.8318" y1="31.3643" x2="42.0006" y2="36.8215" gradientUnits="userSpaceOnUse">
<stop stop-color="#B77BD8"/>
<stop offset="1" stop-color="#6940C2"/>
</linearGradient>
<linearGradient id="paint20_linear_2_727" x1="45.9554" y1="31.3643" x2="42" y2="36.8215" gradientUnits="userSpaceOnUse">
<stop stop-color="#8649D5"/>
<stop offset="1" stop-color="#C281E5"/>
</linearGradient>
</defs>
</svg>
