<svg width="149" height="161" viewBox="0 0 149 161" fill="none" xmlns="http://www.w3.org/2000/svg">
<g filter="url(#filter0_d_2_380)">
<path d="M74.5 29.4178L117.006 53.9589L117.006 103.041L74.5 127.582L31.9936 103.041L31.9936 53.9589L74.5 29.4178Z" stroke="url(#paint0_linear_2_380)" stroke-width="26.7045" stroke-linecap="round" stroke-linejoin="round"/>
<path d="M73.3873 35.5531C74.0758 35.1556 74.9242 35.1556 75.6127 35.5531L111.137 56.0629C111.825 56.4605 112.249 57.1951 112.249 57.9902V99.0098C112.249 99.8049 111.825 100.54 111.137 100.937L75.6127 121.447C74.9242 121.844 74.0759 121.844 73.3873 121.447L37.8633 100.937C37.1747 100.54 36.7506 99.8049 36.7506 99.0098V57.9902C36.7506 57.1951 37.1747 56.4605 37.8633 56.0629L73.3873 35.5531Z" stroke="url(#paint1_linear_2_380)" stroke-width="22.2537" stroke-linecap="round" stroke-linejoin="round"/>
<g filter="url(#filter1_f_2_380)">
<path d="M68.3802 31.9196C72.1672 29.7333 76.8328 29.7333 80.6198 31.9196L111.78 49.9099C115.567 52.0963 117.9 56.1369 117.9 60.5097V96.4903C117.9 100.863 115.567 104.904 111.78 107.09L80.6198 125.08C76.8328 127.267 72.1672 127.267 68.3802 125.08L37.2201 107.09C33.4332 104.904 31.1003 100.863 31.1003 96.4903V60.5097C31.1003 56.1369 33.4332 52.0963 37.2201 49.9099L68.3802 31.9196Z" stroke="#883C05" stroke-opacity="0.3" stroke-width="2.22537" stroke-linecap="round" stroke-linejoin="round"/>
</g>
<g filter="url(#filter2_f_2_380)">
<path d="M68.9366 25.8286C72.3792 23.8409 76.6208 23.8409 80.0634 25.8286L117.333 47.3462C120.776 49.3338 122.897 53.0071 122.897 56.9824V100.018C122.897 103.993 120.776 107.666 117.333 109.654L80.0634 131.171C76.6208 133.159 72.3792 133.159 68.9366 131.171L31.6669 109.654C28.2243 107.666 26.1035 103.993 26.1035 100.018V56.9824C26.1035 53.0071 28.2243 49.3338 31.6669 47.3462L68.9366 25.8286Z" stroke="white" stroke-opacity="0.3" stroke-width="4.45075" stroke-linecap="round" stroke-linejoin="round"/>
<path d="M68.9366 25.8286C72.3792 23.8409 76.6208 23.8409 80.0634 25.8286L117.333 47.3462C120.776 49.3338 122.897 53.0071 122.897 56.9824V100.018C122.897 103.993 120.776 107.666 117.333 109.654L80.0634 131.171C76.6208 133.159 72.3792 133.159 68.9366 131.171L31.6669 109.654C28.2243 107.666 26.1035 103.993 26.1035 100.018V56.9824C26.1035 53.0071 28.2243 49.3338 31.6669 47.3462L68.9366 25.8286Z" stroke="url(#paint2_linear_2_380)" stroke-opacity="0.5" stroke-width="4.45075" stroke-linecap="round" stroke-linejoin="round"/>
</g>
<g filter="url(#filter3_ii_2_380)">
<path d="M67.8239 32.1635C71.9551 29.7784 77.0449 29.7784 81.1761 32.1635L111.463 49.6499C115.595 52.0351 118.14 56.443 118.14 61.2133V96.1861C118.14 100.956 115.595 105.364 111.463 107.749L81.1761 125.236C77.0449 127.621 71.9551 127.621 67.8239 125.236L37.5366 107.749C33.4054 105.364 30.8604 100.956 30.8604 96.1861V61.2133C30.8604 56.443 33.4054 52.0351 37.5366 49.6499L67.8239 32.1635Z" fill="url(#paint3_linear_2_380)"/>
</g>
<path d="M70.0493 36.018C72.8034 34.4279 76.1966 34.4279 78.9507 36.018L109.238 53.5044C111.992 55.0945 113.689 58.0331 113.689 61.2133V96.1861C113.689 99.3663 111.992 102.305 109.238 103.895L78.9507 121.381C76.1966 122.972 72.8034 122.972 70.0492 121.381L39.7619 103.895C37.0078 102.305 35.3112 99.3663 35.3112 96.1861V61.2133C35.3112 58.0331 37.0078 55.0945 39.7619 53.5044L70.0493 36.018Z" stroke="url(#paint4_linear_2_380)" stroke-opacity="0.16" stroke-width="8.9015" stroke-linecap="round" stroke-linejoin="round"/>
<g style="mix-blend-mode:lighten" filter="url(#filter4_f_2_380)">
<rect x="45.2734" y="51.4888" width="36.2812" height="4.03125" rx="2.01562" transform="rotate(-30 45.2734 51.4888)" fill="url(#paint5_linear_2_380)"/>
</g>
<g style="mix-blend-mode:lighten" opacity="0.5" filter="url(#filter5_f_2_380)">
<rect x="45.2734" y="51.4888" width="36.2812" height="4.03125" rx="2.01562" transform="rotate(-30 45.2734 51.4888)" fill="url(#paint6_linear_2_380)"/>
</g>
<g style="mix-blend-mode:lighten" opacity="0.25" filter="url(#filter6_f_2_380)">
<rect x="69.4609" y="62.377" width="36.2843" height="34.8178" rx="17.4089" transform="rotate(-30 69.4609 62.377)" fill="url(#paint7_linear_2_380)"/>
</g>
<g filter="url(#filter7_f_2_380)">
<path d="M74.5001 128.083L52.832 114.981C63.6661 121.532 79.0352 106.918 98.6875 113.469L74.5001 128.083Z" fill="#F75900" fill-opacity="0.5"/>
</g>
<g filter="url(#filter8_d_2_380)">
<path d="M74.5938 93.2335L92.5828 99.6304L74.5938 74.8706V93.2335Z" fill="url(#paint8_linear_2_380)"/>
<path d="M74.5938 93.2335L56.6047 99.6304L74.5938 74.8706V93.2335Z" fill="url(#paint9_linear_2_380)"/>
<path d="M92.5828 99.6304L92.0579 80.545L74.5938 74.8706L92.5828 99.6304Z" fill="url(#paint10_linear_2_380)"/>
<path d="M56.6047 99.6304L57.1296 80.545L74.5938 74.8706L56.6047 99.6304Z" fill="#C4C4C4"/>
<path d="M56.6047 99.6304L57.1296 80.545L74.5938 74.8706L56.6047 99.6304Z" fill="url(#paint11_linear_2_380)"/>
<path d="M45.4863 65.4136L57.1291 80.5454L74.5932 74.871L45.4863 65.4136Z" fill="url(#paint12_linear_2_380)"/>
<path d="M103.699 65.4136L92.0565 80.5454L74.5924 74.871L103.699 65.4136Z" fill="url(#paint13_linear_2_380)"/>
<path d="M103.701 65.4136L85.3872 60.0151L74.5938 74.871L103.701 65.4136Z" fill="url(#paint14_linear_2_380)"/>
<path d="M45.4869 65.4136L63.8003 60.0151L74.5938 74.871L45.4869 65.4136Z" fill="url(#paint15_linear_2_380)"/>
<path d="M85.3872 60.015L74.5938 44.2661V74.8709L85.3872 60.015Z" fill="url(#paint16_linear_2_380)"/>
<path d="M63.8003 60.015L74.5938 44.2661V74.8709L63.8003 60.015Z" fill="url(#paint17_linear_2_380)"/>
</g>
</g>
<defs>
<filter id="filter0_d_2_380" x="-7.80299" y="-1.57762" width="164.606" height="164.606" filterUnits="userSpaceOnUse" color-interpolation-filters="sRGB">
<feFlood flood-opacity="0" result="BackgroundImageFix"/>
<feColorMatrix in="SourceAlpha" type="matrix" values="0 0 0 0 0 0 0 0 0 0 0 0 0 0 0 0 0 0 127 0" result="hardAlpha"/>
<feOffset dy="2.22537"/>
<feGaussianBlur stdDeviation="8.9015"/>
<feColorMatrix type="matrix" values="0 0 0 0 0.879167 0 0 0 0 0.15825 0 0 0 0 0 0 0 0 0.5 0"/>
<feBlend mode="normal" in2="BackgroundImageFix" result="effect1_dropShadow_2_380"/>
<feBlend mode="normal" in="SourceGraphic" in2="effect1_dropShadow_2_380" result="shape"/>
</filter>
<filter id="filter1_f_2_380" x="27.7629" y="26.9416" width="93.4742" height="103.117" filterUnits="userSpaceOnUse" color-interpolation-filters="sRGB">
<feFlood flood-opacity="0" result="BackgroundImageFix"/>
<feBlend mode="normal" in="SourceGraphic" in2="BackgroundImageFix" result="shape"/>
<feGaussianBlur stdDeviation="1.11269" result="effect1_foregroundBlur_2_380"/>
</filter>
<filter id="filter2_f_2_380" x="19.4282" y="17.6616" width="110.144" height="121.677" filterUnits="userSpaceOnUse" color-interpolation-filters="sRGB">
<feFlood flood-opacity="0" result="BackgroundImageFix"/>
<feBlend mode="normal" in="SourceGraphic" in2="BackgroundImageFix" result="shape"/>
<feGaussianBlur stdDeviation="2.22537" result="effect1_foregroundBlur_2_380"/>
</filter>
<filter id="filter3_ii_2_380" x="28.636" y="25.9238" width="98.4042" height="110.003" filterUnits="userSpaceOnUse" color-interpolation-filters="sRGB">
<feFlood flood-opacity="0" result="BackgroundImageFix"/>
<feBlend mode="normal" in="SourceGraphic" in2="BackgroundImageFix" result="shape"/>
<feColorMatrix in="SourceAlpha" type="matrix" values="0 0 0 0 0 0 0 0 0 0 0 0 0 0 0 0 0 0 127 0" result="hardAlpha"/>
<feOffset dx="8.9015" dy="8.9015"/>
<feGaussianBlur stdDeviation="40.0567"/>
<feComposite in2="hardAlpha" operator="arithmetic" k2="-1" k3="1"/>
<feColorMatrix type="matrix" values="0 0 0 0 1 0 0 0 0 1 0 0 0 0 1 0 0 0 0.25 0"/>
<feBlend mode="normal" in2="shape" result="effect1_innerShadow_2_380"/>
<feColorMatrix in="SourceAlpha" type="matrix" values="0 0 0 0 0 0 0 0 0 0 0 0 0 0 0 0 0 0 127 0" result="hardAlpha"/>
<feOffset dx="-2.22537" dy="-4.45075"/>
<feGaussianBlur stdDeviation="8.9015"/>
<feComposite in2="hardAlpha" operator="arithmetic" k2="-1" k3="1"/>
<feColorMatrix type="matrix" values="0 0 0 0 0.758333 0 0 0 0 0.410392 0 0 0 0 0 0 0 0 0.25 0"/>
<feBlend mode="normal" in2="effect1_innerShadow_2_380" result="effect2_innerShadow_2_380"/>
</filter>
<filter id="filter4_f_2_380" x="28.2087" y="16.2825" width="67.5669" height="55.7632" filterUnits="userSpaceOnUse" color-interpolation-filters="sRGB">
<feFlood flood-opacity="0" result="BackgroundImageFix"/>
<feBlend mode="normal" in="SourceGraphic" in2="BackgroundImageFix" result="shape"/>
<feGaussianBlur stdDeviation="8.9015" result="effect1_foregroundBlur_2_380"/>
</filter>
<filter id="filter5_f_2_380" x="28.2087" y="16.2825" width="67.5669" height="55.7632" filterUnits="userSpaceOnUse" color-interpolation-filters="sRGB">
<feFlood flood-opacity="0" result="BackgroundImageFix"/>
<feBlend mode="normal" in="SourceGraphic" in2="BackgroundImageFix" result="shape"/>
<feGaussianBlur stdDeviation="8.9015" result="effect1_foregroundBlur_2_380"/>
</filter>
<filter id="filter6_f_2_380" x="49.1256" y="23.8995" width="89.5027" height="88.9656" filterUnits="userSpaceOnUse" color-interpolation-filters="sRGB">
<feFlood flood-opacity="0" result="BackgroundImageFix"/>
<feBlend mode="normal" in="SourceGraphic" in2="BackgroundImageFix" result="shape"/>
<feGaussianBlur stdDeviation="13.3522" result="effect1_foregroundBlur_2_380"/>
</filter>
<filter id="filter7_f_2_380" x="35.029" y="93.9338" width="81.4615" height="51.9517" filterUnits="userSpaceOnUse" color-interpolation-filters="sRGB">
<feFlood flood-opacity="0" result="BackgroundImageFix"/>
<feBlend mode="normal" in="SourceGraphic" in2="BackgroundImageFix" result="shape"/>
<feGaussianBlur stdDeviation="8.9015" result="effect1_foregroundBlur_2_380"/>
</filter>
<filter id="filter8_d_2_380" x="27.6833" y="28.6885" width="93.8208" height="90.9702" filterUnits="userSpaceOnUse" color-interpolation-filters="sRGB">
<feFlood flood-opacity="0" result="BackgroundImageFix"/>
<feColorMatrix in="SourceAlpha" type="matrix" values="0 0 0 0 0 0 0 0 0 0 0 0 0 0 0 0 0 0 127 0" result="hardAlpha"/>
<feOffset dy="2.22537"/>
<feGaussianBlur stdDeviation="8.9015"/>
<feColorMatrix type="matrix" values="0 0 0 0 0.879167 0 0 0 0 0.15825 0 0 0 0 0 0 0 0 0.5 0"/>
<feBlend mode="normal" in2="BackgroundImageFix" result="effect1_dropShadow_2_380"/>
<feBlend mode="normal" in="SourceGraphic" in2="effect1_dropShadow_2_380" result="shape"/>
</filter>
<linearGradient id="paint0_linear_2_380" x1="10" y1="42.2188" x2="139" y2="113.27" gradientUnits="userSpaceOnUse">
<stop stop-color="#FBE78A"/>
<stop offset="1" stop-color="#F5C862"/>
</linearGradient>
<linearGradient id="paint1_linear_2_380" x1="49.8086" y1="36.1719" x2="96.6719" y2="121.836" gradientUnits="userSpaceOnUse">
<stop stop-color="#D89607"/>
<stop offset="1" stop-color="#FBDC9F"/>
</linearGradient>
<linearGradient id="paint2_linear_2_380" x1="50.9137" y1="33.3783" x2="111.418" y2="113.367" gradientUnits="userSpaceOnUse">
<stop stop-color="white"/>
<stop offset="0.401042" stop-color="white" stop-opacity="0"/>
</linearGradient>
<linearGradient id="paint3_linear_2_380" x1="74.5" y1="148.743" x2="76.3808" y2="29.131" gradientUnits="userSpaceOnUse">
<stop stop-color="#FF8A00"/>
<stop offset="1" stop-color="#FFD407"/>
</linearGradient>
<linearGradient id="paint4_linear_2_380" x1="24.1094" y1="28.3091" x2="74.5" y2="129.09" gradientUnits="userSpaceOnUse">
<stop stop-color="#DD7800" stop-opacity="0"/>
<stop offset="1" stop-color="#DD7800"/>
</linearGradient>
<linearGradient id="paint5_linear_2_380" x1="42.6279" y1="53.0162" x2="75.3471" y2="54.8556" gradientUnits="userSpaceOnUse">
<stop stop-color="white" stop-opacity="0.5"/>
<stop offset="1" stop-color="white"/>
</linearGradient>
<linearGradient id="paint6_linear_2_380" x1="42.6279" y1="53.0162" x2="75.3471" y2="54.8556" gradientUnits="userSpaceOnUse">
<stop stop-color="white" stop-opacity="0.5"/>
<stop offset="1" stop-color="white"/>
</linearGradient>
<linearGradient id="paint7_linear_2_380" x1="66.8152" y1="75.5689" x2="99.6392" y2="75.7826" gradientUnits="userSpaceOnUse">
<stop stop-color="white" stop-opacity="0.5"/>
<stop offset="1" stop-color="white"/>
</linearGradient>
<linearGradient id="paint8_linear_2_380" x1="83.5883" y1="85.9103" x2="74.5938" y2="93.3571" gradientUnits="userSpaceOnUse">
<stop stop-color="#EFA733"/>
<stop offset="1" stop-color="#ED8B2A"/>
</linearGradient>
<linearGradient id="paint9_linear_2_380" x1="65.5993" y1="86.2687" x2="74.5938" y2="93.2758" gradientUnits="userSpaceOnUse">
<stop stop-color="#DB8B2C"/>
<stop offset="1" stop-color="#D46E2A"/>
</linearGradient>
<linearGradient id="paint10_linear_2_380" x1="92.5828" y1="80.8707" x2="84.1682" y2="88.2271" gradientUnits="userSpaceOnUse">
<stop stop-color="#EFB646"/>
<stop offset="0.921875" stop-color="#FDD65C"/>
<stop offset="1" stop-color="#FDE086"/>
</linearGradient>
<linearGradient id="paint11_linear_2_380" x1="56.6048" y1="80.3973" x2="66.0275" y2="87.2193" gradientUnits="userSpaceOnUse">
<stop stop-color="#EBA521"/>
<stop offset="0.822917" stop-color="#FDD674"/>
<stop offset="1" stop-color="#FFECBB"/>
</linearGradient>
<linearGradient id="paint12_linear_2_380" x1="60.0397" y1="70.1841" x2="56.8729" y2="80.5454" gradientUnits="userSpaceOnUse">
<stop stop-color="#EE9C25"/>
<stop offset="1" stop-color="#EFAD26"/>
</linearGradient>
<linearGradient id="paint13_linear_2_380" x1="89.1458" y1="70.5936" x2="93.3149" y2="80.5454" gradientUnits="userSpaceOnUse">
<stop stop-color="#EF904C"/>
<stop offset="1" stop-color="#F0A948"/>
</linearGradient>
<linearGradient id="paint14_linear_2_380" x1="84.6395" y1="60.0151" x2="89.1472" y2="70.5359" gradientUnits="userSpaceOnUse">
<stop stop-color="#F3BA46"/>
<stop offset="1" stop-color="#FFDE80"/>
</linearGradient>
<linearGradient id="paint15_linear_2_380" x1="45.487" y1="65.3143" x2="70.5625" y2="70.0864" gradientUnits="userSpaceOnUse">
<stop stop-color="#FFF5D1"/>
<stop offset="1" stop-color="#E7BC51"/>
</linearGradient>
<linearGradient id="paint16_linear_2_380" x1="79.9905" y1="44.2661" x2="79.9905" y2="74.8709" gradientUnits="userSpaceOnUse">
<stop stop-color="#F9CF59"/>
<stop offset="1" stop-color="#E4A940"/>
</linearGradient>
<linearGradient id="paint17_linear_2_380" x1="69.197" y1="44.2661" x2="73.5859" y2="72.6059" gradientUnits="userSpaceOnUse">
<stop stop-color="#FBD860"/>
<stop offset="1" stop-color="#FAF5D8"/>
</linearGradient>
</defs>
</svg>
