<svg width="149" height="167" viewBox="0 0 149 167" fill="none" xmlns="http://www.w3.org/2000/svg">
<g filter="url(#filter0_d_2_434)">
<path d="M74.5 29.4178L117.006 53.9589L117.006 103.041L74.5 127.582L31.9936 103.041L31.9936 53.9589L74.5 29.4178Z" stroke="url(#paint0_linear_2_434)" stroke-width="26.7045" stroke-linecap="round" stroke-linejoin="round"/>
<path d="M73.3873 35.5526C74.0758 35.1551 74.9242 35.1551 75.6127 35.5526L111.137 56.0625C111.825 56.46 112.249 57.1946 112.249 57.9897V99.0093C112.249 99.8044 111.825 100.539 111.137 100.937L75.6127 121.446C74.9242 121.844 74.0758 121.844 73.3873 121.446L37.8633 100.937C37.1747 100.539 36.7506 99.8044 36.7506 99.0093V57.9897C36.7506 57.1946 37.1747 56.46 37.8633 56.0625L73.3873 35.5526Z" stroke="url(#paint1_linear_2_434)" stroke-width="22.2537" stroke-linecap="round" stroke-linejoin="round"/>
<g filter="url(#filter1_f_2_434)">
<path d="M68.3802 31.9196C72.1672 29.7333 76.8328 29.7333 80.6198 31.9196L111.78 49.9099C115.567 52.0963 117.9 56.1369 117.9 60.5097V96.4903C117.9 100.863 115.567 104.904 111.78 107.09L80.6198 125.08C76.8328 127.267 72.1672 127.267 68.3802 125.08L37.2201 107.09C33.4332 104.904 31.1003 100.863 31.1003 96.4903V60.5097C31.1003 56.1369 33.4332 52.0963 37.2201 49.9099L68.3802 31.9196Z" stroke="#611AD9" stroke-opacity="0.5" stroke-width="2.22537" stroke-linecap="round" stroke-linejoin="round"/>
</g>
<g filter="url(#filter2_f_2_434)">
<path d="M68.9366 25.8286C72.3792 23.8409 76.6208 23.8409 80.0634 25.8286L117.333 47.3462C120.776 49.3338 122.897 53.0071 122.897 56.9824V100.018C122.897 103.993 120.776 107.666 117.333 109.654L80.0634 131.171C76.6208 133.159 72.3792 133.159 68.9366 131.171L31.6669 109.654C28.2243 107.666 26.1035 103.993 26.1035 100.018V56.9824C26.1035 53.0071 28.2243 49.3338 31.6669 47.3462L68.9366 25.8286Z" stroke="white" stroke-opacity="0.3" stroke-width="4.45075" stroke-linecap="round" stroke-linejoin="round"/>
<path d="M68.9366 25.8286C72.3792 23.8409 76.6208 23.8409 80.0634 25.8286L117.333 47.3462C120.776 49.3338 122.897 53.0071 122.897 56.9824V100.018C122.897 103.993 120.776 107.666 117.333 109.654L80.0634 131.171C76.6208 133.159 72.3792 133.159 68.9366 131.171L31.6669 109.654C28.2243 107.666 26.1035 103.993 26.1035 100.018V56.9824C26.1035 53.0071 28.2243 49.3338 31.6669 47.3462L68.9366 25.8286Z" stroke="url(#paint2_linear_2_434)" stroke-opacity="0.5" stroke-width="4.45075" stroke-linecap="round" stroke-linejoin="round"/>
</g>
<g filter="url(#filter3_ii_2_434)">
<path d="M67.8239 32.1635C71.9551 29.7784 77.0449 29.7784 81.1761 32.1635L111.463 49.6499C115.595 52.0351 118.14 56.443 118.14 61.2133V96.1861C118.14 100.956 115.595 105.364 111.463 107.749L81.1761 125.236C77.0449 127.621 71.9551 127.621 67.8239 125.236L37.5366 107.749C33.4054 105.364 30.8604 100.956 30.8604 96.1861V61.2133C30.8604 56.443 33.4054 52.0351 37.5366 49.6499L67.8239 32.1635Z" fill="url(#paint3_linear_2_434)"/>
</g>
<path d="M70.0492 36.018C72.8034 34.4279 76.1966 34.4279 78.9507 36.018L109.238 53.5044C111.992 55.0945 113.689 58.0331 113.689 61.2133V96.1861C113.689 99.3663 111.992 102.305 109.238 103.895L78.9507 121.381C76.1966 122.971 72.8034 122.971 70.0492 121.381L39.7619 103.895C37.0078 102.305 35.3112 99.3663 35.3112 96.1861V61.2133C35.3112 58.0331 37.0078 55.0945 39.7619 53.5044L70.0492 36.018Z" stroke="url(#paint4_linear_2_434)" stroke-opacity="0.16" stroke-width="8.9015" stroke-linecap="round" stroke-linejoin="round"/>
<g style="mix-blend-mode:lighten" filter="url(#filter4_f_2_434)">
<rect x="45.2734" y="51.4878" width="36.2812" height="4.03125" rx="2.01562" transform="rotate(-30 45.2734 51.4878)" fill="url(#paint5_linear_2_434)"/>
</g>
<g style="mix-blend-mode:lighten" opacity="0.5" filter="url(#filter5_f_2_434)">
<rect x="45.2734" y="51.4878" width="36.2812" height="4.03125" rx="2.01562" transform="rotate(-30 45.2734 51.4878)" fill="url(#paint6_linear_2_434)"/>
</g>
<g style="mix-blend-mode:lighten" opacity="0.25" filter="url(#filter6_f_2_434)">
<rect x="69.4609" y="62.375" width="36.2844" height="34.8178" rx="17.4089" transform="rotate(-30 69.4609 62.375)" fill="url(#paint7_linear_2_434)"/>
</g>
<g filter="url(#filter7_f_2_434)">
<path d="M74.0172 131.214L44.0457 113.092C59.0314 122.153 80.2902 101.939 107.474 111.001L74.0172 131.214Z" fill="#E924FA" fill-opacity="0.75"/>
</g>
<g filter="url(#filter8_d_2_434)">
<path d="M74.5002 104.415L88.9263 75.082H60.0742L74.5002 104.415Z" fill="#C4C4C4"/>
<path d="M74.5002 104.415L88.9263 75.082H60.0742L74.5002 104.415Z" fill="url(#paint8_linear_2_434)"/>
<path d="M107.474 75.0825L95.9327 58.3208L95.1084 62.5112L103.352 75.0825H107.474Z" fill="#C4C4C4"/>
<path d="M107.474 75.0825L95.9327 58.3208L95.1084 62.5112L103.352 75.0825H107.474Z" fill="url(#paint9_linear_2_434)"/>
<path d="M103.353 75.083L95.1093 62.5117L88.9268 75.083H103.353Z" fill="#C4C4C4"/>
<path d="M103.353 75.083L95.1093 62.5117L88.9268 75.083H103.353Z" fill="url(#paint10_linear_2_434)"/>
<path d="M88.926 75.083L95.1086 62.5117H74.5L88.926 75.083Z" fill="#C4C4C4"/>
<path d="M88.926 75.083L95.1086 62.5117H74.5L88.926 75.083Z" fill="url(#paint11_linear_2_434)"/>
<path d="M74.5002 62.5117L88.9263 75.083H60.0742L74.5002 62.5117Z" fill="#C4C4C4"/>
<path d="M74.5002 62.5117L88.9263 75.083H60.0742L74.5002 62.5117Z" fill="url(#paint12_linear_2_434)"/>
<path d="M74.5002 62.5117H53.8916L60.0742 75.083L74.5002 62.5117Z" fill="#C4C4C4"/>
<path d="M74.5002 62.5117H53.8916L60.0742 75.083L74.5002 62.5117Z" fill="url(#paint13_linear_2_434)"/>
<path d="M95.9333 58.3208H53.0674L53.8917 62.5112H74.5003H95.1089L95.9333 58.3208Z" fill="#C4C4C4"/>
<path d="M95.9333 58.3208H53.0674L53.8917 62.5112H74.5003H95.1089L95.9333 58.3208Z" fill="url(#paint14_linear_2_434)"/>
<path d="M53.8919 62.5117L45.6484 75.083H60.0745L53.8919 62.5117Z" fill="#C4C4C4"/>
<path d="M53.8919 62.5117L45.6484 75.083H60.0745L53.8919 62.5117Z" fill="url(#paint15_linear_2_434)"/>
<path d="M41.5264 75.079L53.0672 58.3174L53.8915 62.5078L45.6481 75.079H41.5264Z" fill="#C4C4C4"/>
<path d="M41.5264 75.079L53.0672 58.3174L53.8915 62.5078L45.6481 75.079H41.5264Z" fill="url(#paint16_linear_2_434)"/>
<path d="M74.5001 108.605L41.5264 75.082H45.6481L74.5001 104.415V108.605Z" fill="#C4C4C4"/>
<path d="M74.5001 108.605L41.5264 75.082H45.6481L74.5001 104.415V108.605Z" fill="url(#paint17_linear_2_434)"/>
<path d="M107.474 75.082L74.5 108.605V104.415L103.352 75.082H107.474Z" fill="#C4C4C4"/>
<path d="M107.474 75.082L74.5 108.605V104.415L103.352 75.082H107.474Z" fill="url(#paint18_linear_2_434)"/>
<path d="M74.5005 104.415L45.6484 75.082H60.0745L74.5005 104.415Z" fill="#C4C4C4"/>
<path d="M74.5005 104.415L45.6484 75.082H60.0745L74.5005 104.415Z" fill="url(#paint19_linear_2_434)"/>
<path d="M103.352 75.082L74.5 104.415L88.926 75.082H103.352Z" fill="#C4C4C4"/>
<path d="M103.352 75.082L74.5 104.415L88.926 75.082H103.352Z" fill="url(#paint20_linear_2_434)"/>
</g>
</g>
<defs>
<filter id="filter0_d_2_434" x="-7.803" y="-1.57762" width="164.606" height="164.606" filterUnits="userSpaceOnUse" color-interpolation-filters="sRGB">
<feFlood flood-opacity="0" result="BackgroundImageFix"/>
<feColorMatrix in="SourceAlpha" type="matrix" values="0 0 0 0 0 0 0 0 0 0 0 0 0 0 0 0 0 0 127 0" result="hardAlpha"/>
<feOffset dy="2.22537"/>
<feGaussianBlur stdDeviation="8.9015"/>
<feColorMatrix type="matrix" values="0 0 0 0 0.13725 0 0 0 0 0.0028125 0 0 0 0 0.675 0 0 0 0.5 0"/>
<feBlend mode="normal" in2="BackgroundImageFix" result="effect1_dropShadow_2_434"/>
<feBlend mode="normal" in="SourceGraphic" in2="effect1_dropShadow_2_434" result="shape"/>
</filter>
<filter id="filter1_f_2_434" x="27.7619" y="26.9416" width="93.4761" height="103.117" filterUnits="userSpaceOnUse" color-interpolation-filters="sRGB">
<feFlood flood-opacity="0" result="BackgroundImageFix"/>
<feBlend mode="normal" in="SourceGraphic" in2="BackgroundImageFix" result="shape"/>
<feGaussianBlur stdDeviation="1.11269" result="effect1_foregroundBlur_2_434"/>
</filter>
<filter id="filter2_f_2_434" x="19.4272" y="17.6616" width="110.146" height="121.677" filterUnits="userSpaceOnUse" color-interpolation-filters="sRGB">
<feFlood flood-opacity="0" result="BackgroundImageFix"/>
<feBlend mode="normal" in="SourceGraphic" in2="BackgroundImageFix" result="shape"/>
<feGaussianBlur stdDeviation="2.22537" result="effect1_foregroundBlur_2_434"/>
</filter>
<filter id="filter3_ii_2_434" x="28.635" y="25.9238" width="98.4062" height="110.003" filterUnits="userSpaceOnUse" color-interpolation-filters="sRGB">
<feFlood flood-opacity="0" result="BackgroundImageFix"/>
<feBlend mode="normal" in="SourceGraphic" in2="BackgroundImageFix" result="shape"/>
<feColorMatrix in="SourceAlpha" type="matrix" values="0 0 0 0 0 0 0 0 0 0 0 0 0 0 0 0 0 0 127 0" result="hardAlpha"/>
<feOffset dx="8.9015" dy="8.9015"/>
<feGaussianBlur stdDeviation="40.0567"/>
<feComposite in2="hardAlpha" operator="arithmetic" k2="-1" k3="1"/>
<feColorMatrix type="matrix" values="0 0 0 0 1 0 0 0 0 1 0 0 0 0 1 0 0 0 0.25 0"/>
<feBlend mode="normal" in2="shape" result="effect1_innerShadow_2_434"/>
<feColorMatrix in="SourceAlpha" type="matrix" values="0 0 0 0 0 0 0 0 0 0 0 0 0 0 0 0 0 0 127 0" result="hardAlpha"/>
<feOffset dx="-2.22537" dy="-4.45075"/>
<feGaussianBlur stdDeviation="8.9015"/>
<feComposite in2="hardAlpha" operator="arithmetic" k2="-1" k3="1"/>
<feColorMatrix type="matrix" values="0 0 0 0 0.380392 0 0 0 0 0.101961 0 0 0 0 0.85098 0 0 0 0.25 0"/>
<feBlend mode="normal" in2="effect1_innerShadow_2_434" result="effect2_innerShadow_2_434"/>
</filter>
<filter id="filter4_f_2_434" x="28.2077" y="16.2815" width="67.5669" height="55.7632" filterUnits="userSpaceOnUse" color-interpolation-filters="sRGB">
<feFlood flood-opacity="0" result="BackgroundImageFix"/>
<feBlend mode="normal" in="SourceGraphic" in2="BackgroundImageFix" result="shape"/>
<feGaussianBlur stdDeviation="8.9015" result="effect1_foregroundBlur_2_434"/>
</filter>
<filter id="filter5_f_2_434" x="28.2077" y="16.2815" width="67.5669" height="55.7632" filterUnits="userSpaceOnUse" color-interpolation-filters="sRGB">
<feFlood flood-opacity="0" result="BackgroundImageFix"/>
<feBlend mode="normal" in="SourceGraphic" in2="BackgroundImageFix" result="shape"/>
<feGaussianBlur stdDeviation="8.9015" result="effect1_foregroundBlur_2_434"/>
</filter>
<filter id="filter6_f_2_434" x="49.1256" y="23.8976" width="89.5027" height="88.9656" filterUnits="userSpaceOnUse" color-interpolation-filters="sRGB">
<feFlood flood-opacity="0" result="BackgroundImageFix"/>
<feBlend mode="normal" in="SourceGraphic" in2="BackgroundImageFix" result="shape"/>
<feGaussianBlur stdDeviation="13.3522" result="effect1_foregroundBlur_2_434"/>
</filter>
<filter id="filter7_f_2_434" x="8.43991" y="72.9985" width="134.64" height="93.8214" filterUnits="userSpaceOnUse" color-interpolation-filters="sRGB">
<feFlood flood-opacity="0" result="BackgroundImageFix"/>
<feBlend mode="normal" in="SourceGraphic" in2="BackgroundImageFix" result="shape"/>
<feGaussianBlur stdDeviation="17.803" result="effect1_foregroundBlur_2_434"/>
</filter>
<filter id="filter8_d_2_434" x="23.7234" y="42.7398" width="101.553" height="85.8941" filterUnits="userSpaceOnUse" color-interpolation-filters="sRGB">
<feFlood flood-opacity="0" result="BackgroundImageFix"/>
<feColorMatrix in="SourceAlpha" type="matrix" values="0 0 0 0 0 0 0 0 0 0 0 0 0 0 0 0 0 0 127 0" result="hardAlpha"/>
<feOffset dy="2.22537"/>
<feGaussianBlur stdDeviation="8.9015"/>
<feColorMatrix type="matrix" values="0 0 0 0 0.13725 0 0 0 0 0.0028125 0 0 0 0 0.675 0 0 0 0.5 0"/>
<feBlend mode="normal" in2="BackgroundImageFix" result="effect1_dropShadow_2_434"/>
<feBlend mode="normal" in="SourceGraphic" in2="effect1_dropShadow_2_434" result="shape"/>
</filter>
<linearGradient id="paint0_linear_2_434" x1="10" y1="42.2188" x2="139" y2="113.27" gradientUnits="userSpaceOnUse">
<stop stop-color="#FAC5FF"/>
<stop offset="1" stop-color="#9B49FF"/>
</linearGradient>
<linearGradient id="paint1_linear_2_434" x1="49.8086" y1="36.1714" x2="96.6719" y2="121.835" gradientUnits="userSpaceOnUse">
<stop stop-color="#9B56D1"/>
<stop offset="0.0001" stop-color="#A260D4"/>
<stop offset="1" stop-color="#D8CAFF"/>
</linearGradient>
<linearGradient id="paint2_linear_2_434" x1="50.9137" y1="33.3783" x2="111.418" y2="113.367" gradientUnits="userSpaceOnUse">
<stop stop-color="white"/>
<stop offset="0.401042" stop-color="white" stop-opacity="0"/>
</linearGradient>
<linearGradient id="paint3_linear_2_434" x1="24.1094" y1="28.3091" x2="143.764" y2="63.0779" gradientUnits="userSpaceOnUse">
<stop stop-color="#A88FFF"/>
<stop offset="1" stop-color="#611AD9"/>
</linearGradient>
<linearGradient id="paint4_linear_2_434" x1="24.1094" y1="28.3091" x2="74.5" y2="129.09" gradientUnits="userSpaceOnUse">
<stop stop-color="#874CE7"/>
<stop offset="1" stop-color="#665CDA"/>
</linearGradient>
<linearGradient id="paint5_linear_2_434" x1="42.6279" y1="53.0152" x2="75.3471" y2="54.8546" gradientUnits="userSpaceOnUse">
<stop stop-color="white" stop-opacity="0.5"/>
<stop offset="1" stop-color="white"/>
</linearGradient>
<linearGradient id="paint6_linear_2_434" x1="42.6279" y1="53.0152" x2="75.3471" y2="54.8546" gradientUnits="userSpaceOnUse">
<stop stop-color="#F95AD6" stop-opacity="0.5"/>
<stop offset="1" stop-color="white"/>
</linearGradient>
<linearGradient id="paint7_linear_2_434" x1="66.8152" y1="75.567" x2="99.6392" y2="75.7807" gradientUnits="userSpaceOnUse">
<stop stop-color="white" stop-opacity="0.5"/>
<stop offset="1" stop-color="white"/>
</linearGradient>
<linearGradient id="paint8_linear_2_434" x1="74.5002" y1="75.082" x2="74.5002" y2="104.415" gradientUnits="userSpaceOnUse">
<stop stop-color="#7D5EE9"/>
<stop offset="1" stop-color="#E3A4FD"/>
</linearGradient>
<linearGradient id="paint9_linear_2_434" x1="95.1084" y1="60.1486" x2="105.679" y2="75.0825" gradientUnits="userSpaceOnUse">
<stop stop-color="#914FD8"/>
<stop offset="1" stop-color="#CD62E5"/>
</linearGradient>
<linearGradient id="paint10_linear_2_434" x1="97.8407" y1="66.1407" x2="90.0313" y2="74.1832" gradientUnits="userSpaceOnUse">
<stop stop-color="#9363D7"/>
<stop offset="1" stop-color="#E8CEFF"/>
</linearGradient>
<linearGradient id="paint11_linear_2_434" x1="74.5" y1="62.5117" x2="91.1944" y2="70.8014" gradientUnits="userSpaceOnUse">
<stop stop-color="#CEB7F3"/>
<stop offset="1" stop-color="#AF8AF6"/>
</linearGradient>
<linearGradient id="paint12_linear_2_434" x1="74.5002" y1="62.5117" x2="74.5002" y2="75.083" gradientUnits="userSpaceOnUse">
<stop stop-color="#EDD5FC"/>
<stop offset="1" stop-color="#FBF2FE"/>
</linearGradient>
<linearGradient id="paint13_linear_2_434" x1="74.5002" y1="62.5117" x2="57.1895" y2="68.7973" gradientUnits="userSpaceOnUse">
<stop stop-color="#E9DBFB"/>
<stop offset="1" stop-color="#EDE1FF"/>
</linearGradient>
<linearGradient id="paint14_linear_2_434" x1="53.0674" y1="60.416" x2="95.9333" y2="60.416" gradientUnits="userSpaceOnUse">
<stop stop-color="#EDD7FD"/>
<stop offset="0.895833" stop-color="#FDFCFF"/>
</linearGradient>
<linearGradient id="paint15_linear_2_434" x1="54.5695" y1="62.5117" x2="52.8614" y2="75.083" gradientUnits="userSpaceOnUse">
<stop stop-color="#BDA0D7"/>
<stop offset="1" stop-color="#BEB4EF"/>
</linearGradient>
<linearGradient id="paint16_linear_2_434" x1="53.3706" y1="59.9428" x2="43.7023" y2="75.079" gradientUnits="userSpaceOnUse">
<stop stop-color="#F7E0FD"/>
<stop offset="1" stop-color="#FEEDFF"/>
</linearGradient>
<linearGradient id="paint17_linear_2_434" x1="44.0742" y1="75.082" x2="74.5001" y2="106.346" gradientUnits="userSpaceOnUse">
<stop stop-color="#AF2EFD"/>
<stop offset="1" stop-color="#321392"/>
</linearGradient>
<linearGradient id="paint18_linear_2_434" x1="104.809" y1="75.082" x2="74.5" y2="107.029" gradientUnits="userSpaceOnUse">
<stop stop-color="#271EC1"/>
<stop offset="1" stop-color="#EA25FE"/>
</linearGradient>
<linearGradient id="paint19_linear_2_434" x1="52.0929" y1="75.082" x2="74.5005" y2="104.415" gradientUnits="userSpaceOnUse">
<stop stop-color="#B77BD8"/>
<stop offset="1" stop-color="#6940C2"/>
</linearGradient>
<linearGradient id="paint20_linear_2_434" x1="95.7605" y1="75.082" x2="74.5" y2="104.415" gradientUnits="userSpaceOnUse">
<stop stop-color="#8649D5"/>
<stop offset="1" stop-color="#C281E5"/>
</linearGradient>
</defs>
</svg>
