<svg width="145" height="159" viewBox="0 0 145 159" fill="none" xmlns="http://www.w3.org/2000/svg">
<g filter="url(#filter0_d_2_406)">
<path d="M72.5 27.133L116.119 52.3165L116.119 102.683L72.5 127.867L28.8809 102.683V52.3165L72.5 27.133Z" stroke="url(#paint0_linear_2_406)" stroke-width="24.4791" stroke-linecap="round" stroke-linejoin="round"/>
<path d="M71.48 33.4289C72.1112 33.0645 72.8888 33.0645 73.52 33.4289L110.157 54.5811C110.788 54.9455 111.177 55.619 111.177 56.3478V98.6522C111.177 99.381 110.788 100.054 110.157 100.419L73.52 121.571C72.8888 121.935 72.1112 121.935 71.48 121.571L34.8433 100.419C34.2121 100.054 33.8233 99.381 33.8233 98.6522V56.3478C33.8233 55.619 34.2121 54.9455 34.8433 54.5811L71.48 33.4289Z" stroke="url(#paint1_linear_2_406)" stroke-width="20.3993" stroke-linecap="round" stroke-linejoin="round"/>
<g filter="url(#filter1_f_2_406)">
<path d="M66.8902 30.5181C70.3616 28.5139 74.6384 28.5139 78.1098 30.5181L110.383 49.1508C113.854 51.155 115.992 54.8589 115.992 58.8673V96.1327C115.992 100.141 113.854 103.845 110.383 105.849L78.1098 124.482C74.6384 126.486 70.3616 126.486 66.8902 124.482L34.6174 105.849C31.1461 103.845 29.0076 100.141 29.0076 96.1327V58.8673C29.0076 54.8589 31.1461 51.155 34.6174 49.1508L66.8902 30.5181Z" stroke="#FF1C25" stroke-opacity="0.5" stroke-width="2.03993" stroke-linecap="round" stroke-linejoin="round"/>
</g>
<g filter="url(#filter2_f_2_406)">
<path d="M67.4002 24.3468C70.556 22.5248 74.444 22.5248 77.5998 24.3468L115.982 46.5068C119.138 48.3288 121.082 51.696 121.082 55.34V99.6601C121.082 103.304 119.138 106.671 115.982 108.493L77.5998 130.653C74.444 132.475 70.556 132.475 67.4002 130.653L29.0179 108.493C25.8621 106.671 23.918 103.304 23.918 99.6601V55.34C23.918 51.696 25.8621 48.3288 29.0179 46.5068L67.4002 24.3468Z" stroke="white" stroke-opacity="0.3" stroke-width="4.07985" stroke-linecap="round" stroke-linejoin="round"/>
<path d="M67.4002 24.3468C70.556 22.5248 74.444 22.5248 77.5998 24.3468L115.982 46.5068C119.138 48.3288 121.082 51.696 121.082 55.34V99.6601C121.082 103.304 119.138 106.671 115.982 108.493L77.5998 130.653C74.444 132.475 70.556 132.475 67.4002 130.653L29.0179 108.493C25.8621 106.671 23.918 103.304 23.918 99.6601V55.34C23.918 51.696 25.8621 48.3288 29.0179 46.5068L67.4002 24.3468Z" stroke="url(#paint2_linear_2_406)" stroke-opacity="0.5" stroke-width="4.07985" stroke-linecap="round" stroke-linejoin="round"/>
</g>
<g filter="url(#filter3_ii_2_406)">
<path d="M66.3802 30.8423C70.1672 28.656 74.8328 28.656 78.6198 30.8423L110.02 48.9711C113.807 51.1575 116.14 55.1981 116.14 59.5709V95.8285C116.14 100.201 113.807 104.242 110.02 106.428L78.6198 124.557C74.8328 126.743 70.1672 126.743 66.3802 124.557L34.9802 106.428C31.1933 104.242 28.8604 100.201 28.8604 95.8285V59.5709C28.8604 55.1981 31.1933 51.1575 34.9802 48.9711L66.3802 30.8423Z" fill="url(#paint3_linear_2_406)"/>
</g>
<path d="M68.4201 34.3756C70.9448 32.918 74.0552 32.918 76.5799 34.3756L107.98 52.5044C110.504 53.962 112.06 56.6557 112.06 59.5709V95.8285C112.06 98.7437 110.504 101.437 107.98 102.895L76.5798 121.024C74.0552 122.481 70.9448 122.481 68.4201 121.024L37.0201 102.895C34.4955 101.437 32.9403 98.7437 32.9403 95.8285V59.5709C32.9403 56.6557 34.4955 53.962 37.0201 52.5044L68.4201 34.3756Z" stroke="url(#paint4_linear_2_406)" stroke-opacity="0.16" stroke-width="8.15971" stroke-linecap="round" stroke-linejoin="round"/>
<g style="mix-blend-mode:lighten" filter="url(#filter4_f_2_406)">
<rect x="43.2734" y="50.4888" width="36.2812" height="4.03125" rx="2.01562" transform="rotate(-30 43.2734 50.4888)" fill="url(#paint5_linear_2_406)"/>
</g>
<g style="mix-blend-mode:lighten" opacity="0.5" filter="url(#filter5_f_2_406)">
<rect x="43.2734" y="50.4888" width="36.2812" height="4.03125" rx="2.01562" transform="rotate(-30 43.2734 50.4888)" fill="url(#paint6_linear_2_406)"/>
</g>
<g style="mix-blend-mode:lighten" opacity="0.25" filter="url(#filter6_f_2_406)">
<rect x="67.4609" y="61.377" width="36.2844" height="34.8178" rx="17.4089" transform="rotate(-30 67.4609 61.377)" fill="url(#paint7_linear_2_406)"/>
</g>
<g filter="url(#filter7_f_2_406)">
<path d="M72.5001 127.083L50.832 113.981C61.6661 120.532 77.0352 105.918 96.6875 112.469L72.5001 127.083Z" fill="#FF1C25" fill-opacity="0.5"/>
</g>
<g filter="url(#filter8_d_2_406)">
<path d="M67.0586 77.5L72.5008 41.2188V113.781L67.0586 77.5Z" fill="url(#paint8_linear_2_406)"/>
<path d="M77.9422 77.5L72.5 113.781V41.2188L77.9422 77.5Z" fill="#C4C4C4"/>
<path d="M77.9422 77.5L72.5 113.781V41.2188L77.9422 77.5Z" fill="url(#paint9_linear_2_406)"/>
<path d="M72.5 72.0571L108.781 77.4993L36.2187 77.4993L72.5 72.0571Z" fill="#C4C4C4"/>
<path d="M72.5 72.0571L108.781 77.4993L36.2187 77.4993L72.5 72.0571Z" fill="url(#paint10_linear_2_406)"/>
<path d="M72.5 82.9422L36.2187 77.5L108.781 77.5L72.5 82.9422Z" fill="#C4C4C4"/>
<path d="M72.5 82.9422L36.2187 77.5L108.781 77.5L72.5 82.9422Z" fill="url(#paint11_linear_2_406)"/>
<path d="M68.6519 73.6518L98.1548 51.8453L46.8454 103.155L68.6519 73.6518Z" fill="#C4C4C4"/>
<path d="M68.6519 73.6518L98.1548 51.8453L46.8454 103.155L68.6519 73.6518Z" fill="url(#paint12_linear_2_406)"/>
<path d="M76.3478 81.3472L46.8449 103.154L98.1543 51.8442L76.3478 81.3472Z" fill="#C4C4C4"/>
<path d="M76.3478 81.3472L46.8449 103.154L98.1543 51.8442L76.3478 81.3472Z" fill="url(#paint13_linear_2_406)"/>
<path d="M76.3472 73.6519L98.1537 103.155L46.8443 51.8454L76.3472 73.6519Z" fill="#C4C4C4"/>
<path d="M76.3472 73.6519L98.1537 103.155L46.8443 51.8454L76.3472 73.6519Z" fill="url(#paint14_linear_2_406)"/>
<path d="M68.6514 81.3473L46.8449 51.8444L98.1543 103.154L68.6514 81.3473Z" fill="#C4C4C4"/>
<path d="M68.6514 81.3473L46.8449 51.8444L98.1543 103.154L68.6514 81.3473Z" fill="url(#paint15_linear_2_406)"/>
<path d="M69.4221 80.8367C71.1932 82.6078 74.0647 82.6078 75.8357 80.8367L79.0426 84.0436C75.5004 87.5857 69.7574 87.5857 66.2152 84.0436L69.4221 80.8367Z" fill="#C4C4C4"/>
<path d="M69.4221 80.8367C71.1932 82.6078 74.0647 82.6078 75.8357 80.8367L79.0426 84.0436C75.5004 87.5857 69.7574 87.5857 66.2152 84.0436L69.4221 80.8367Z" fill="url(#paint16_linear_2_406)"/>
<g filter="url(#filter9_ii_2_406)">
<path d="M75.8357 80.8363C74.0647 82.6074 71.1932 82.6074 69.4221 80.8363C67.651 79.0653 67.651 76.1937 69.4221 74.4227C71.1932 72.6516 74.0647 72.6516 75.8357 74.4227C77.6068 76.1937 77.6068 79.0653 75.8357 80.8363Z" fill="url(#paint17_linear_2_406)"/>
</g>
<path d="M69.4217 74.4227C67.6506 76.1937 67.6506 79.0653 69.4217 80.8363L66.2148 84.0432C62.6727 80.501 62.6727 74.758 66.2148 71.2158L69.4217 74.4227Z" fill="#C4C4C4"/>
<path d="M69.4217 74.4227C67.6506 76.1937 67.6506 79.0653 69.4217 80.8363L66.2148 84.0432C62.6727 80.501 62.6727 74.758 66.2148 71.2158L69.4217 74.4227Z" fill="url(#paint18_linear_2_406)"/>
<path d="M75.8361 80.8363C77.6072 79.0652 77.6072 76.1937 75.8361 74.4227L79.043 71.2158C82.5851 74.758 82.5851 80.501 79.043 84.0432L75.8361 80.8363Z" fill="#C4C4C4"/>
<path d="M75.8361 80.8363C77.6072 79.0652 77.6072 76.1937 75.8361 74.4227L79.043 71.2158C82.5851 74.758 82.5851 80.501 79.043 84.0432L75.8361 80.8363Z" fill="url(#paint19_linear_2_406)"/>
<path d="M75.8357 74.4223C74.0647 72.6512 71.1932 72.6512 69.4221 74.4223L66.2152 71.2154C69.7574 67.6733 75.5004 67.6733 79.0426 71.2154L75.8357 74.4223Z" fill="#C4C4C4"/>
<path d="M75.8357 74.4223C74.0647 72.6512 71.1932 72.6512 69.4221 74.4223L66.2152 71.2154C69.7574 67.6733 75.5004 67.6733 79.0426 71.2154L75.8357 74.4223Z" fill="url(#paint20_linear_2_406)"/>
</g>
</g>
<defs>
<filter id="filter0_d_2_406" x="-8.31941" y="-1.27949" width="161.639" height="161.639" filterUnits="userSpaceOnUse" color-interpolation-filters="sRGB">
<feFlood flood-opacity="0" result="BackgroundImageFix"/>
<feColorMatrix in="SourceAlpha" type="matrix" values="0 0 0 0 0 0 0 0 0 0 0 0 0 0 0 0 0 0 127 0" result="hardAlpha"/>
<feOffset dy="2.03993"/>
<feGaussianBlur stdDeviation="8.15971"/>
<feColorMatrix type="matrix" values="0 0 0 0 0.675 0 0 0 0 0.0028125 0 0 0 0 0.0028125 0 0 0 0.5 0"/>
<feBlend mode="normal" in2="BackgroundImageFix" result="effect1_dropShadow_2_406"/>
<feBlend mode="normal" in="SourceGraphic" in2="effect1_dropShadow_2_406" result="shape"/>
</filter>
<filter id="filter1_f_2_406" x="25.9484" y="25.9552" width="93.1033" height="103.09" filterUnits="userSpaceOnUse" color-interpolation-filters="sRGB">
<feFlood flood-opacity="0" result="BackgroundImageFix"/>
<feBlend mode="normal" in="SourceGraphic" in2="BackgroundImageFix" result="shape"/>
<feGaussianBlur stdDeviation="1.01996" result="effect1_foregroundBlur_2_406"/>
</filter>
<filter id="filter2_f_2_406" x="17.7991" y="16.8606" width="109.402" height="121.279" filterUnits="userSpaceOnUse" color-interpolation-filters="sRGB">
<feFlood flood-opacity="0" result="BackgroundImageFix"/>
<feBlend mode="normal" in="SourceGraphic" in2="BackgroundImageFix" result="shape"/>
<feGaussianBlur stdDeviation="2.03993" result="effect1_foregroundBlur_2_406"/>
</filter>
<filter id="filter3_ii_2_406" x="26.8214" y="25.1228" width="97.477" height="109.234" filterUnits="userSpaceOnUse" color-interpolation-filters="sRGB">
<feFlood flood-opacity="0" result="BackgroundImageFix"/>
<feBlend mode="normal" in="SourceGraphic" in2="BackgroundImageFix" result="shape"/>
<feColorMatrix in="SourceAlpha" type="matrix" values="0 0 0 0 0 0 0 0 0 0 0 0 0 0 0 0 0 0 127 0" result="hardAlpha"/>
<feOffset dx="8.15971" dy="8.15971"/>
<feGaussianBlur stdDeviation="36.7187"/>
<feComposite in2="hardAlpha" operator="arithmetic" k2="-1" k3="1"/>
<feColorMatrix type="matrix" values="0 0 0 0 1 0 0 0 0 1 0 0 0 0 1 0 0 0 0.25 0"/>
<feBlend mode="normal" in2="shape" result="effect1_innerShadow_2_406"/>
<feColorMatrix in="SourceAlpha" type="matrix" values="0 0 0 0 0 0 0 0 0 0 0 0 0 0 0 0 0 0 127 0" result="hardAlpha"/>
<feOffset dx="-2.03993" dy="-4.07985"/>
<feGaussianBlur stdDeviation="8.15971"/>
<feComposite in2="hardAlpha" operator="arithmetic" k2="-1" k3="1"/>
<feColorMatrix type="matrix" values="0 0 0 0 1 0 0 0 0 0.109804 0 0 0 0 0.145098 0 0 0 0.25 0"/>
<feBlend mode="normal" in2="effect1_innerShadow_2_406" result="effect2_innerShadow_2_406"/>
</filter>
<filter id="filter4_f_2_406" x="27.6923" y="16.766" width="64.5998" height="52.7961" filterUnits="userSpaceOnUse" color-interpolation-filters="sRGB">
<feFlood flood-opacity="0" result="BackgroundImageFix"/>
<feBlend mode="normal" in="SourceGraphic" in2="BackgroundImageFix" result="shape"/>
<feGaussianBlur stdDeviation="8.15971" result="effect1_foregroundBlur_2_406"/>
</filter>
<filter id="filter5_f_2_406" x="27.6923" y="16.766" width="64.5998" height="52.7961" filterUnits="userSpaceOnUse" color-interpolation-filters="sRGB">
<feFlood flood-opacity="0" result="BackgroundImageFix"/>
<feBlend mode="normal" in="SourceGraphic" in2="BackgroundImageFix" result="shape"/>
<feGaussianBlur stdDeviation="8.15971" result="effect1_foregroundBlur_2_406"/>
</filter>
<filter id="filter6_f_2_406" x="49.351" y="25.1249" width="85.052" height="84.5149" filterUnits="userSpaceOnUse" color-interpolation-filters="sRGB">
<feFlood flood-opacity="0" result="BackgroundImageFix"/>
<feBlend mode="normal" in="SourceGraphic" in2="BackgroundImageFix" result="shape"/>
<feGaussianBlur stdDeviation="12.2396" result="effect1_foregroundBlur_2_406"/>
</filter>
<filter id="filter7_f_2_406" x="34.5126" y="94.4174" width="78.4943" height="48.9845" filterUnits="userSpaceOnUse" color-interpolation-filters="sRGB">
<feFlood flood-opacity="0" result="BackgroundImageFix"/>
<feBlend mode="normal" in="SourceGraphic" in2="BackgroundImageFix" result="shape"/>
<feGaussianBlur stdDeviation="8.15971" result="effect1_foregroundBlur_2_406"/>
</filter>
<filter id="filter8_d_2_406" x="19.8993" y="26.9393" width="105.201" height="105.201" filterUnits="userSpaceOnUse" color-interpolation-filters="sRGB">
<feFlood flood-opacity="0" result="BackgroundImageFix"/>
<feColorMatrix in="SourceAlpha" type="matrix" values="0 0 0 0 0 0 0 0 0 0 0 0 0 0 0 0 0 0 127 0" result="hardAlpha"/>
<feOffset dy="2.03993"/>
<feGaussianBlur stdDeviation="8.15971"/>
<feColorMatrix type="matrix" values="0 0 0 0 0.675 0 0 0 0 0.0028125 0 0 0 0 0.0028125 0 0 0 0.5 0"/>
<feBlend mode="normal" in2="BackgroundImageFix" result="effect1_dropShadow_2_406"/>
<feBlend mode="normal" in="SourceGraphic" in2="effect1_dropShadow_2_406" result="shape"/>
</filter>
<filter id="filter9_ii_2_406" x="67.0738" y="72.0743" width="11.1102" height="11.1102" filterUnits="userSpaceOnUse" color-interpolation-filters="sRGB">
<feFlood flood-opacity="0" result="BackgroundImageFix"/>
<feBlend mode="normal" in="SourceGraphic" in2="BackgroundImageFix" result="shape"/>
<feColorMatrix in="SourceAlpha" type="matrix" values="0 0 0 0 0 0 0 0 0 0 0 0 0 0 0 0 0 0 127 0" result="hardAlpha"/>
<feOffset dx="1.01996" dy="1.01996"/>
<feGaussianBlur stdDeviation="1.01996"/>
<feComposite in2="hardAlpha" operator="arithmetic" k2="-1" k3="1"/>
<feColorMatrix type="matrix" values="0 0 0 0 1 0 0 0 0 1 0 0 0 0 1 0 0 0 0.5 0"/>
<feBlend mode="normal" in2="shape" result="effect1_innerShadow_2_406"/>
<feColorMatrix in="SourceAlpha" type="matrix" values="0 0 0 0 0 0 0 0 0 0 0 0 0 0 0 0 0 0 127 0" result="hardAlpha"/>
<feOffset dx="-1.01996" dy="-1.01996"/>
<feGaussianBlur stdDeviation="1.01996"/>
<feComposite in2="hardAlpha" operator="arithmetic" k2="-1" k3="1"/>
<feColorMatrix type="matrix" values="0 0 0 0 0.770833 0 0 0 0 0.128472 0 0 0 0 0.128472 0 0 0 0.5 0"/>
<feBlend mode="normal" in2="effect1_innerShadow_2_406" result="effect2_innerShadow_2_406"/>
</filter>
<linearGradient id="paint0_linear_2_406" x1="8" y1="41.2188" x2="137" y2="112.27" gradientUnits="userSpaceOnUse">
<stop stop-color="#FFE2E2"/>
<stop offset="1" stop-color="#FD5555"/>
</linearGradient>
<linearGradient id="paint1_linear_2_406" x1="47.8086" y1="35.1719" x2="94.6719" y2="120.836" gradientUnits="userSpaceOnUse">
<stop stop-color="#D15656"/>
<stop offset="1" stop-color="#FBDCDC"/>
</linearGradient>
<linearGradient id="paint2_linear_2_406" x1="48.9137" y1="32.3783" x2="109.418" y2="112.367" gradientUnits="userSpaceOnUse">
<stop stop-color="white"/>
<stop offset="0.401042" stop-color="white" stop-opacity="0"/>
</linearGradient>
<linearGradient id="paint3_linear_2_406" x1="22.1094" y1="27.3091" x2="141.764" y2="62.0779" gradientUnits="userSpaceOnUse">
<stop stop-color="#FFC1C1"/>
<stop offset="1" stop-color="#F21F1F"/>
</linearGradient>
<linearGradient id="paint4_linear_2_406" x1="22.1094" y1="27.3091" x2="72.5" y2="128.09" gradientUnits="userSpaceOnUse">
<stop stop-color="#E74C4C"/>
<stop offset="1" stop-color="#DA5C5C"/>
</linearGradient>
<linearGradient id="paint5_linear_2_406" x1="40.6279" y1="52.0162" x2="73.3471" y2="53.8556" gradientUnits="userSpaceOnUse">
<stop stop-color="white" stop-opacity="0.5"/>
<stop offset="1" stop-color="white"/>
</linearGradient>
<linearGradient id="paint6_linear_2_406" x1="40.6279" y1="52.0162" x2="73.3471" y2="53.8556" gradientUnits="userSpaceOnUse">
<stop stop-color="white" stop-opacity="0.5"/>
<stop offset="1" stop-color="white"/>
</linearGradient>
<linearGradient id="paint7_linear_2_406" x1="64.8152" y1="74.5689" x2="97.6392" y2="74.7826" gradientUnits="userSpaceOnUse">
<stop stop-color="white" stop-opacity="0.5"/>
<stop offset="1" stop-color="white"/>
</linearGradient>
<linearGradient id="paint8_linear_2_406" x1="69.7797" y1="41.2187" x2="69.6456" y2="41.225" gradientUnits="userSpaceOnUse">
<stop stop-color="#FEF1F1"/>
<stop offset="1" stop-color="#FBF6F6"/>
</linearGradient>
<linearGradient id="paint9_linear_2_406" x1="76.1281" y1="63.8945" x2="72.5" y2="85.2098" gradientUnits="userSpaceOnUse">
<stop stop-color="#F37474"/>
<stop offset="1" stop-color="#F34747"/>
</linearGradient>
<linearGradient id="paint10_linear_2_406" x1="108.781" y1="74.7782" x2="36.2187" y2="74.7782" gradientUnits="userSpaceOnUse">
<stop stop-color="#FFFAFA"/>
<stop offset="1" stop-color="#FFF9F9"/>
</linearGradient>
<linearGradient id="paint11_linear_2_406" x1="72.5" y1="77.5" x2="72.5" y2="84.3027" gradientUnits="userSpaceOnUse">
<stop stop-color="#F17171"/>
<stop offset="1" stop-color="#E47070"/>
</linearGradient>
<linearGradient id="paint12_linear_2_406" x1="96.2307" y1="49.9212" x2="44.9213" y2="101.231" gradientUnits="userSpaceOnUse">
<stop stop-color="#FDEAEA"/>
<stop offset="1" stop-color="#FEC9C9"/>
</linearGradient>
<linearGradient id="paint13_linear_2_406" x1="100.078" y1="53.7683" x2="48.769" y2="105.078" gradientUnits="userSpaceOnUse">
<stop stop-color="#DB5E5E"/>
<stop offset="1" stop-color="#FF9292"/>
</linearGradient>
<linearGradient id="paint14_linear_2_406" x1="56.626" y1="62.9873" x2="87.0116" y2="86.5701" gradientUnits="userSpaceOnUse">
<stop stop-color="#FDD5D5"/>
<stop offset="1" stop-color="#FFE2E2"/>
</linearGradient>
<linearGradient id="paint15_linear_2_406" x1="96.2302" y1="105.078" x2="44.9208" y2="53.7685" gradientUnits="userSpaceOnUse">
<stop stop-color="#F46F6F"/>
<stop offset="1" stop-color="#EB7878"/>
</linearGradient>
<linearGradient id="paint16_linear_2_406" x1="77.0352" y1="82.9427" x2="67.9649" y2="82.4892" gradientUnits="userSpaceOnUse">
<stop offset="0.0001" stop-color="#DF4848"/>
<stop offset="1" stop-color="#E83333"/>
</linearGradient>
<linearGradient id="paint17_linear_2_406" x1="69.3254" y1="74.3258" x2="76.1281" y2="81.1285" gradientUnits="userSpaceOnUse">
<stop stop-color="#F9BCBC"/>
<stop offset="1" stop-color="#F67A7A"/>
</linearGradient>
<linearGradient id="paint18_linear_2_406" x1="67.511" y1="71.6047" x2="67.511" y2="83.8496" gradientUnits="userSpaceOnUse">
<stop stop-color="#FDA3A3"/>
<stop offset="1" stop-color="#E83333"/>
</linearGradient>
<linearGradient id="paint19_linear_2_406" x1="78.8496" y1="71.1512" x2="77.9426" y2="82.489" gradientUnits="userSpaceOnUse">
<stop stop-color="#EA9999"/>
<stop offset="0.547205" stop-color="#ED6C6C"/>
<stop offset="1" stop-color="#DF4949"/>
</linearGradient>
<linearGradient id="paint20_linear_2_406" x1="77.9422" y1="72.5115" x2="68.8719" y2="69.7904" gradientUnits="userSpaceOnUse">
<stop stop-color="#E84545"/>
<stop offset="1" stop-color="#FDF1F1"/>
</linearGradient>
</defs>
</svg>
