<svg width="137" height="25" viewBox="0 0 137 25" fill="none" xmlns="http://www.w3.org/2000/svg">
<path d="M11.5489 2.92705C11.8483 2.00574 13.1517 2.00574 13.4511 2.92705L15.0819 7.9463C15.2158 8.35833 15.5997 8.63729 16.033 8.63729H21.3105C22.2792 8.63729 22.682 9.8769 21.8983 10.4463L17.6287 13.5484C17.2782 13.803 17.1315 14.2544 17.2654 14.6664L18.8963 19.6857C19.1956 20.607 18.1411 21.3731 17.3574 20.8037L13.0878 17.7016C12.7373 17.447 12.2627 17.447 11.9122 17.7016L7.64258 20.8037C6.85887 21.3731 5.80439 20.607 6.10374 19.6857L7.7346 14.6664C7.86847 14.2544 7.72181 13.803 7.37132 13.5484L3.10169 10.4463C2.31798 9.8769 2.72075 8.63729 3.68948 8.63729H8.96703C9.40026 8.63729 9.78421 8.35833 9.91809 7.9463L11.5489 2.92705Z" fill="#A35BFF"/>
<path d="M39.5489 2.92705C39.8483 2.00574 41.1517 2.00574 41.4511 2.92705L43.0819 7.9463C43.2158 8.35833 43.5997 8.63729 44.033 8.63729H49.3105C50.2792 8.63729 50.682 9.8769 49.8983 10.4463L45.6287 13.5484C45.2782 13.803 45.1315 14.2544 45.2654 14.6664L46.8963 19.6857C47.1956 20.607 46.1411 21.3731 45.3574 20.8037L41.0878 17.7016C40.7373 17.447 40.2627 17.447 39.9122 17.7016L35.6426 20.8037C34.8589 21.3731 33.8044 20.607 34.1037 19.6857L35.7346 14.6664C35.8685 14.2544 35.7218 13.803 35.3713 13.5484L31.1017 10.4463C30.318 9.8769 30.7208 8.63729 31.6895 8.63729H36.967C37.4003 8.63729 37.7842 8.35833 37.9181 7.9463L39.5489 2.92705Z" fill="#A35BFF"/>
<path d="M67.5489 2.92705C67.8483 2.00574 69.1517 2.00574 69.4511 2.92705L71.0819 7.9463C71.2158 8.35833 71.5997 8.63729 72.033 8.63729H77.3105C78.2792 8.63729 78.682 9.8769 77.8983 10.4463L73.6287 13.5484C73.2782 13.803 73.1315 14.2544 73.2654 14.6664L74.8963 19.6857C75.1956 20.607 74.1411 21.3731 73.3574 20.8037L69.0878 17.7016C68.7373 17.447 68.2627 17.447 67.9122 17.7016L63.6426 20.8037C62.8589 21.3731 61.8044 20.607 62.1037 19.6857L63.7346 14.6664C63.8685 14.2544 63.7218 13.803 63.3713 13.5484L59.1017 10.4463C58.318 9.8769 58.7208 8.63729 59.6895 8.63729H64.967C65.4003 8.63729 65.7842 8.35833 65.9181 7.9463L67.5489 2.92705Z" fill="#A35BFF"/>
<path d="M95.5489 2.92705C95.8483 2.00574 97.1517 2.00574 97.4511 2.92705L99.0819 7.9463C99.2158 8.35833 99.5997 8.63729 100.033 8.63729H105.311C106.279 8.63729 106.682 9.8769 105.898 10.4463L101.629 13.5484C101.278 13.803 101.132 14.2544 101.265 14.6664L102.896 19.6857C103.196 20.607 102.141 21.3731 101.357 20.8037L97.0878 17.7016C96.7373 17.447 96.2627 17.447 95.9122 17.7016L91.6426 20.8037C90.8589 21.3731 89.8044 20.607 90.1037 19.6857L91.7346 14.6664C91.8685 14.2544 91.7218 13.803 91.3713 13.5484L87.1017 10.4463C86.318 9.8769 86.7208 8.63729 87.6895 8.63729H92.967C93.4003 8.63729 93.7842 8.35833 93.9181 7.9463L95.5489 2.92705Z" fill="#A35BFF"/>
<path d="M123.549 2.92705C123.848 2.00574 125.152 2.00574 125.451 2.92705L127.082 7.9463C127.216 8.35833 127.6 8.63729 128.033 8.63729H133.311C134.279 8.63729 134.682 9.8769 133.898 10.4463L129.629 13.5484C129.278 13.803 129.132 14.2544 129.265 14.6664L130.896 19.6857C131.196 20.607 130.141 21.3731 129.357 20.8037L125.088 17.7016C124.737 17.447 124.263 17.447 123.912 17.7016L119.643 20.8037C118.859 21.3731 117.804 20.607 118.104 19.6857L119.735 14.6664C119.868 14.2544 119.722 13.803 119.371 13.5484L115.102 10.4463C114.318 9.8769 114.721 8.63729 115.689 8.63729H120.967C121.4 8.63729 121.784 8.35833 121.918 7.9463L123.549 2.92705Z" fill="#A35BFF"/>
</svg>
